<?xml version="1.0" encoding="UTF-8" standalone="no"?>
<!-- Created with Inkscape (http://www.inkscape.org/) -->

<svg
   width="38mm"
   height="12mm"
   viewBox="0 0 38 12"
   version="1.1"
   id="svg1"
   xml:space="preserve"
   sodipodi:docname="logo.svg"
   inkscape:version="1.3.2 (091e20e, 2023-11-25)"
   xmlns:inkscape="http://www.inkscape.org/namespaces/inkscape"
   xmlns:sodipodi="http://sodipodi.sourceforge.net/DTD/sodipodi-0.dtd"
   xmlns="http://www.w3.org/2000/svg"
   xmlns:svg="http://www.w3.org/2000/svg"><sodipodi:namedview
     id="namedview1"
     pagecolor="#fa5bee"
     bordercolor="#000000"
     borderopacity="0.25"
     inkscape:showpageshadow="2"
     inkscape:pageopacity="0.0"
     inkscape:pagecheckerboard="0"
     inkscape:deskcolor="#d1d1d1"
     inkscape:document-units="mm"
     inkscape:zoom="28.963094"
     inkscape:cx="10.133586"
     inkscape:cy="35.838712"
     inkscape:window-width="1854"
     inkscape:window-height="1011"
     inkscape:window-x="0"
     inkscape:window-y="0"
     inkscape:window-maximized="1"
     inkscape:current-layer="layer2"
     showgrid="true"><inkscape:grid
       id="grid3"
       units="mm"
       originx="0"
       originy="0"
       spacingx="0.99999998"
       spacingy="0.99999998"
       empcolor="#0099e5"
       empopacity="0.30196078"
       color="#0099e5"
       opacity="0.14901961"
       empspacing="5"
       dotted="false"
       gridanglex="30"
       gridanglez="30"
       visible="true" /></sodipodi:namedview><defs
     id="defs1" /><g
     inkscape:groupmode="layer"
     id="layer2"
     inkscape:label="Logo"
     transform="translate(-1.9604972,-0.39324134)"><path
       style="fill:#ef7d17;stroke-width:0.264583;fill-opacity:1"
       d="M 5.8300898,8.2222999 H 2.1129689 V 4.7060398 Z"
       id="path3"
       inkscape:label="P_Triangle" /><g
       id="g1"
       inkscape:label="P"
       transform="matrix(1.0000011,0,0,1,-85.561032,-113.09829)"><ellipse
         style="fill:#ef7d17;fill-opacity:1;stroke-width:0.264583"
         id="path2"
         cx="89.452042"
         cy="115.75642"
         rx="1.9389796"
         ry="1.9372667"
         inkscape:label="P_Circ" /><path
         style="fill:#fef5ed;fill-opacity:1;stroke-width:0.264583"
         d="m 91.704164,113.93411 -0.0045,3.49928 3.460453,-1.74475 z"
         id="path6"
         inkscape:label="P_Play" /><path
         style="fill:#ef7d17;fill-opacity:1;stroke-width:0.264583"
         d="m 95.06866,117.87633 -3.418163,-0.072 0.01929,3.51626 c 0,0 3.393384,-0.31661 3.398885,-3.4443 z"
         id="path5"
         inkscape:label="P_Corner" /><rect
         style="fill:#ef7d17;fill-opacity:1;stroke-width:0.261079"
         id="rect7"
         width="3.8475239"
         height="3.5911989"
         x="87.673904"
         y="121.52916"
         ry="0.12717895"
         inkscape:label="P_Square" /></g><path
       style="opacity:1;fill:#ffffff;fill-opacity:1;stroke-width:1"
       d="m 27.594158,12.026559 c -1.502866,-0.34125 -1.946551,-1.17566 -1.946551,-3.6607303 0,-2.59233 0.480639,-3.40126 2.197148,-3.69789 0.820284,-0.14175 2.566721,-0.0717 3.179726,0.12759 0.630034,0.2048 1.132771,0.75168 1.350164,1.46869 0.260403,0.85894 0.264884,3.33001 0.0084,4.1771303 -0.2271,0.7476 -0.65942,1.24218 -1.278613,1.46275 -0.634181,0.2259 -2.731542,0.29909 -3.509434,0.12246 z m 2.393371,-2.1115903 c 0.204931,-0.20492 0.222106,-0.32479 0.222106,-1.54914 0,-1.21206 -0.01868,-1.34572 -0.215615,-1.54265 -0.453528,-0.45354 -1.61622,-0.34519 -1.895745,0.17666 -0.159117,0.29707 -0.203381,2.12717 -0.06357,2.62828 0.163241,0.5850613 1.463604,0.7760703 1.952811,0.28685 z M 11.767433,11.894299 c -0.03423,-0.0892 -0.06227,-2.3508403 -0.06227,-5.0259003 v -4.86374 l 0.256341,-0.0975 c 0.436115,-0.16581 4.313726,-0.24998 5.125843,-0.11126 1.464,0.25006 2.159483,0.88966 2.409774,2.21614 0.155879,0.8261 0.08461,2.16908 -0.149414,2.81453 -0.407373,1.12369 -1.14885,1.44321 -3.516204,1.51519 l -1.66592,0.0507 v 1.8320013 1.831999 h -1.167976 c -0.970481,0 -1.178509,-0.0274 -1.230213,-0.16216 z m 4.805639,-5.4756503 c 0.484645,-0.18426 0.716467,-1.17749 0.451933,-1.93631 -0.174727,-0.50123 -0.531991,-0.62728 -1.777851,-0.62728 h -1.081526 v 1.33272 1.33273 h 1.069767 c 0.588366,0 1.190316,-0.0458 1.337677,-0.10186 z m 4.051164,2.61909 c 0,-3.53873 0.02681,-3.67624 0.806802,-4.13476 0.4597,-0.27024 0.52206,-0.27888 1.977156,-0.27398 1.863849,0.006 1.848279,-0.003 1.80774,1.06164 l -0.02966,0.77861 -0.984397,0.0513 c -0.609933,0.0318 -1.047991,0.10423 -1.151581,0.19052 -0.145035,0.1208 -0.170814,0.48085 -0.19455,2.71671 l -0.02745,2.5774603 -1.102066,0.0291 -1.102066,0.0291 z m 12.917387,2.2769303 1.52e-4,-0.74471 1.542803,-1.9991003 1.542796,-1.99909 -1.466067,-0.0513 -1.466063,-0.0513 v -0.92265 -0.92266 h 3.024274 3.024271 l 0.02998,0.73913 0.02998,0.73914 -1.485365,1.97758 -1.485361,1.9775813 1.557841,0.0513 1.557841,0.0513 v 0.922649 0.92266 l -3.203677,0.0271 -3.20368,0.0271 z"
       id="path1"
       inkscape:label="Text" /></g></svg>
